<svg width="24" height="24" viewBox="0 0 24 24" fill="none" xmlns="http://www.w3.org/2000/svg">
<path d="M21 21.7502C21 21.9491 20.921 22.1399 20.7803 22.2805C20.6397 22.4212 20.4489 22.5002 20.25 22.5002H10.5C10.3011 22.5002 10.1103 22.4212 9.96967 22.2805C9.82901 22.1399 9.75 21.9491 9.75 21.7502C9.75 21.5513 9.82901 21.3605 9.96967 21.2199C10.1103 21.0792 10.3011 21.0002 10.5 21.0002H20.25C20.4489 21.0002 20.6397 21.0792 20.7803 21.2199C20.921 21.3605 21 21.5513 21 21.7502ZM21 15.0002V18.0002C21 18.398 20.842 18.7796 20.5607 19.0609C20.2794 19.3422 19.8978 19.5002 19.5 19.5002H10.6978C10.4189 19.5011 10.1453 19.4238 9.90801 19.2772C9.67074 19.1305 9.47928 18.9204 9.35531 18.6705L3.9075 7.79551C3.80392 7.58691 3.75002 7.35716 3.75002 7.12426C3.75002 6.89136 3.80392 6.66161 3.9075 6.45301L5.98125 2.32801C6.15726 1.97674 6.46408 1.70856 6.83573 1.58111C7.20738 1.45366 7.61421 1.47712 7.96875 1.64645L11.1272 2.97957L11.1712 3.0002C11.5268 3.1782 11.7972 3.49011 11.9229 3.86737C12.0486 4.24464 12.0193 4.65637 11.8416 5.01207C11.8387 5.01922 11.8352 5.02612 11.8312 5.0327L10.5 7.5002L13.4794 13.5002H19.5C19.8978 13.5002 20.2794 13.6582 20.5607 13.9395C20.842 14.2208 21 14.6024 21 15.0002ZM19.5 15.0002H13.4784C13.1996 15.0011 12.9261 14.9239 12.689 14.7772C12.4519 14.6306 12.2606 14.4204 12.1369 14.1705L9.15656 8.17051C9.05323 7.96234 8.99946 7.73308 8.99946 7.50067C8.99946 7.26826 9.05323 7.039 9.15656 6.83082L9.16781 6.8102L10.5 4.3427L7.36593 3.01988C7.35092 3.01408 7.33621 3.00751 7.32187 3.0002L5.25 7.1252L10.6969 18.0002H19.5V15.0002Z" fill="#120304"/>
</svg>
