<svg width="24" height="24" viewBox="0 0 24 24" fill="none" xmlns="http://www.w3.org/2000/svg">
<path d="M2.11865 17.0445C1.96309 16.8889 1.82874 16.698 1.74388 16.4859C1.55297 16.0121 1.57418 15.4818 1.80752 15.0222L2.42978 13.7777C2.71262 13.212 3.37023 12.8089 3.99955 12.8018L7.21689 12.7948C7.25932 12.7948 7.36538 12.7453 7.40074 12.7099L9.14729 10.9634L4.52988 9.13196C3.9147 8.88447 3.49751 8.42485 3.38437 7.87331C3.27123 7.32177 3.46922 6.7278 3.92884 6.26818L4.84101 5.35601C5.53398 4.66304 6.77141 4.41556 7.64823 4.7974L13.1283 6.96821L15.1365 4.96003C15.9921 4.10443 17.576 3.72259 18.7357 4.09029C19.2872 4.27414 19.7115 4.6984 19.8882 5.24287C20.263 6.4096 19.8882 7.98645 19.0326 8.84205L17.0245 10.8502L19.2165 16.3515C19.5771 17.2495 19.3367 18.4516 18.6367 19.1517L17.7245 20.0638C17.2578 20.5305 16.678 20.7285 16.1194 20.6083C15.5608 20.4881 15.1082 20.078 14.8536 19.4699L13.0222 14.8525L11.2757 16.599C11.2474 16.6273 11.205 16.7263 11.205 16.7687L11.1979 20.0002C11.1979 20.6224 10.7807 21.2942 10.2221 21.57L8.97759 22.1922C8.5109 22.4185 7.98057 22.4397 7.5068 22.2346C7.04011 22.0367 6.68656 21.6548 6.52393 21.1811C6.50978 21.1245 6.49564 21.0679 6.48857 21.0043L6.22694 17.9708C6.21987 17.8647 6.09966 17.7587 6.00774 17.7516L2.97425 17.49C2.91768 17.49 2.86111 17.4758 2.81161 17.4546C2.54291 17.3839 2.30957 17.2354 2.11865 17.0445ZM10.5262 10.0229C10.6888 10.1856 10.8019 10.3835 10.8443 10.6098C10.9292 11.0199 10.7949 11.4371 10.4696 11.7624L8.45433 13.7777C8.15027 14.0817 7.64115 14.2938 7.21689 14.2938L3.99955 14.3009C3.93591 14.308 3.80156 14.3858 3.77328 14.4423L3.14396 15.6939C3.09446 15.7858 3.11567 15.8636 3.12981 15.906C3.14395 15.9343 3.16517 15.9838 3.22174 16.0121L6.14209 16.2596C6.9694 16.3232 7.66944 17.0233 7.73308 17.8506L7.98057 20.7568C8.02299 20.8134 8.06542 20.8416 8.0937 20.8558C8.13613 20.8699 8.22098 20.8982 8.31291 20.8487L9.55741 20.2265C9.62105 20.1911 9.69883 20.0568 9.69884 20.0002L9.70591 16.7829C9.69176 16.3727 9.9039 15.8495 10.215 15.5383L12.2303 13.5231C12.5485 13.2049 12.9586 13.0635 13.3616 13.1413C13.7647 13.219 14.097 13.509 14.2667 13.9332L16.2466 18.9112C16.3103 19.0597 16.381 19.1305 16.4163 19.1375C16.4517 19.1446 16.5436 19.1092 16.6568 18.9961L17.5689 18.0839C17.8376 17.8152 17.9578 17.2425 17.8164 16.9031L15.5749 11.2533C15.3981 10.8078 15.5183 10.2492 15.8577 9.90978L17.9791 7.78846C18.4457 7.32177 18.6791 6.35303 18.467 5.71663C18.4387 5.63178 18.368 5.56107 18.276 5.52572C17.6538 5.32773 16.6638 5.56814 16.2042 6.02776L14.0829 8.14908C13.7506 8.48142 13.1849 8.6087 12.7394 8.43192L7.08961 6.1904C6.74313 6.0419 6.17037 6.16211 5.90874 6.42374L4.99658 7.33591C4.88344 7.44905 4.84808 7.54097 4.85515 7.57633C4.86222 7.61168 4.93293 7.68239 5.08143 7.74603L10.0524 9.71886C10.2362 9.78957 10.3989 9.89564 10.5262 10.0229Z" fill="#ED1C24"/>
</svg>
