<svg width="70" height="20" viewBox="0 0 70 20" fill="none" xmlns="http://www.w3.org/2000/svg">
<circle cx="3.25" cy="10" r="3" fill="#ED1C24"/>
<rect x="6.25" y="9.5" width="43" height="1" fill="#ED1C24"/>
<path d="M60.3917 16.7085L62.0667 12.8168L62.4334 11.9501C62.5 11.8168 62.675 11.7001 62.825 11.7001H65.375C66.175 11.7001 67.125 11.1085 67.4917 10.3918C67.6167 10.1418 67.6167 9.8418 67.4917 9.5918C67.125 8.88346 66.1667 8.2918 65.3667 8.2918H62.8167C62.6667 8.2918 62.4917 8.17513 62.425 8.0418L60.3834 3.2918C60.1667 2.7668 59.5084 2.3418 58.9417 2.3418H57.8417C57.1334 2.3418 56.7834 2.87513 57.0667 3.53346L58.8667 7.70846C59.0084 8.03346 58.8334 8.30013 58.475 8.30013H57.55H56.05C55.8584 8.30013 55.5834 8.1918 55.45 8.05846L53.5084 6.12513C53.3084 5.92513 52.9167 5.83346 52.6334 5.92513L51.5 6.30013C51.0084 6.45013 50.775 7.00846 51.0084 7.4668L52.675 9.45013C52.9334 9.75013 52.9334 10.2418 52.675 10.5418L51.0084 12.5251C50.7834 12.9835 51.0084 13.5418 51.5 13.7085L52.6334 14.0835C52.9084 14.1751 53.3084 14.0835 53.5084 13.8835L55.45 11.9501C55.5834 11.8085 55.8584 11.7001 56.05 11.7001H58.475C58.8334 11.7001 59 11.9585 58.8667 12.2918L57.0667 16.4668C56.7834 17.1251 57.1334 17.6585 57.8417 17.6585H58.9417C59.5084 17.6585 60.1667 17.2335 60.3917 16.7085Z" fill="#ED1C24"/>
</svg>
