<svg width="32" height="32" viewBox="0 0 32 32" fill="none" xmlns="http://www.w3.org/2000/svg">
<path d="M9.45403 15.9918H7.92149C7.90692 16.5204 8.04264 16.9008 8.42767 16.9008C8.70247 16.9008 8.97657 16.7721 9.12027 16.6655L9.19296 17.4C8.98105 17.5649 8.64351 17.7026 8.25903 17.7026C7.60355 17.7026 7.21894 17.1204 7.21894 16.1367C7.21894 15.5392 7.34822 14.8581 7.57049 14.3758C7.82036 13.8228 8.20049 13.4755 8.67193 13.4755C9.24577 13.4755 9.56763 14.0035 9.56763 14.91C9.56763 15.138 9.52701 15.6413 9.45403 15.9918ZM8.58089 14.164C8.36492 14.164 8.182 14.3984 8.05594 14.797C8.00427 14.972 7.99516 15.0197 7.96029 15.2352H8.8641C8.88482 15.1155 8.90402 14.919 8.90402 14.7901C8.90402 14.3816 8.7879 14.164 8.58089 14.164ZM4.68965 18.8309H4.01176L3.69214 13.5879H4.4332L4.56933 17.1523L5.61181 13.5879H6.3778L4.68965 18.8309ZM11.0915 14.3447H10.6897L10.4075 16.4773C10.3986 16.5393 10.3526 16.9099 10.5905 16.929C10.6578 16.9368 10.7573 16.9091 10.8012 16.8784C10.8012 16.8784 10.6849 17.7026 10.158 17.7026C9.75045 17.7026 9.56445 17.2206 9.65997 16.4996L10.1337 12.9589C10.1337 12.9589 10.4014 12.4835 10.9218 12.622C10.8317 13.2909 10.7907 13.588 10.7907 13.588L11.1918 13.5865L11.0915 14.3447ZM16.0767 14.3447H15.6745L15.3917 16.4774C15.3827 16.5393 15.3373 16.9099 15.5756 16.9291C15.6422 16.9368 15.7418 16.9091 15.7855 16.8784C15.7855 16.8784 15.6695 17.7026 15.1426 17.7026C14.7356 17.7026 14.5496 17.2207 14.646 16.4996L15.1181 12.959C15.1181 12.959 15.387 12.4835 15.9075 12.622C15.8168 13.2909 15.7753 13.588 15.7753 13.588L16.1782 13.5865L16.0767 14.3447ZM14.4398 15.9918H12.9071C12.892 16.5204 13.0277 16.9008 13.4126 16.9008C13.6864 16.9008 13.961 16.7721 14.1049 16.6655L14.1784 17.4C13.9662 17.5649 13.629 17.7026 13.2428 17.7026C12.5894 17.7026 12.2045 17.1204 12.2045 16.1367C12.2045 15.5392 12.3328 14.8581 12.555 14.3758C12.8058 13.8228 13.1864 13.4755 13.6578 13.4755C14.2314 13.4755 14.5538 14.0035 14.5538 14.91C14.5538 15.138 14.5129 15.6413 14.4398 15.9918ZM13.5662 14.164C13.35 14.164 13.1662 14.3984 13.0415 14.797C12.9882 14.972 12.9798 15.0197 12.9456 15.2352H13.8483C13.8697 15.1155 13.8889 14.919 13.8889 14.7901C13.8889 14.3816 13.7734 14.164 13.5662 14.164ZM21.4722 14.36C21.2945 14.2529 21.1006 14.2451 20.9765 14.3289L20.5383 17.6635H19.8002L20.3107 13.8167C20.621 13.5499 21.1982 13.3936 21.6502 13.5186L21.4722 14.36ZM17.866 18.8309L17.8735 17.6626H16.8509L16.4381 18.8309H15.7056L17.7113 13.5879H18.4759L18.6067 18.8309H17.866ZM17.8903 14.7532L17.1199 16.9061H17.874L17.8903 14.7532Z" fill="#ED1D24"/>
<path d="M10.3907 19.403C9.72806 19.403 9.3653 18.7244 9.41881 18.0156C9.74696 18.6118 10.3573 18.6135 10.7214 18.1131C10.8557 17.9315 10.9656 17.6385 11.0561 16.9349C11.2128 15.7348 11.504 13.5879 11.504 13.5879H12.2462L11.7323 17.4263C11.5627 18.6236 11.0539 19.403 10.3907 19.403ZM6.70772 17.6624H5.96692L6.51036 13.5879H7.2524L6.70772 17.6624ZM19.451 17.6624H18.7089L19.254 13.5879H19.9968L19.451 17.6624ZM21.1478 17.7025C21.0248 17.7025 20.9392 17.5642 20.9392 17.3876C20.9392 17.1487 21.0847 16.9188 21.2458 16.9188C21.3685 16.9188 21.4572 17.0535 21.4572 17.2342C21.4572 17.4722 21.3074 17.7025 21.1478 17.7025ZM23.0024 15.241C22.9657 15.1967 22.8906 15.1389 22.8012 15.1389C22.6541 15.1389 22.522 15.269 22.4225 15.5463C22.3278 15.7995 22.2672 16.1928 22.2672 16.4848C22.2672 16.8568 22.3645 17.0535 22.5188 17.0535C22.6193 17.0535 22.7258 16.9976 22.78 16.9367L22.8263 17.4754C22.7337 17.5991 22.5686 17.7006 22.3455 17.7006C21.97 17.7006 21.7009 17.2514 21.7009 16.5362C21.7009 16.0915 21.8091 15.5568 21.97 15.1967C22.1636 14.7698 22.4362 14.5553 22.7153 14.5553C22.9339 14.5553 23.1178 14.6793 23.1811 14.7795L23.0024 15.241Z" fill="#ED1D24"/>
<path d="M24.463 17.0265C24.2843 17.4427 24.011 17.7004 23.646 17.7004C23.1883 17.7004 22.9513 17.2403 22.9513 16.5811C22.9513 16.1367 23.0552 15.5846 23.2124 15.2243C23.3949 14.8016 23.6708 14.5552 24.025 14.5552C24.4843 14.5552 24.725 15.0102 24.725 15.6697C24.725 16.1149 24.6166 16.6653 24.463 17.0265ZM23.9791 15.1006C23.8289 15.1006 23.7211 15.2815 23.646 15.5508C23.5636 15.8386 23.4916 16.3548 23.4916 16.6653C23.4916 16.9242 23.5411 17.1044 23.6994 17.1044C23.8547 17.1044 23.9539 16.9366 24.0288 16.6653C24.109 16.3779 24.1865 15.855 24.1865 15.5462C24.1865 15.2867 24.1328 15.1006 23.9791 15.1006ZM27.6854 15.5482L27.4064 17.6732H26.8427L27.1285 15.5198C27.1316 15.4803 27.1358 15.4471 27.1358 15.4078C27.1358 15.2311 27.0663 15.1053 26.9001 15.1053C26.799 15.1053 26.6987 15.1733 26.6292 15.2654L26.3113 17.6732H25.7472L26.0332 15.5133C26.0366 15.4744 26.0407 15.4416 26.0407 15.4078C26.0407 15.2194 25.9536 15.1053 25.7839 15.1053C25.6922 15.1053 25.6164 15.1286 25.5444 15.1677L25.2154 17.6732H24.6525L25.0356 14.7824C25.266 14.6343 25.5311 14.5553 25.8552 14.5553C26.1127 14.5553 26.3213 14.6914 26.4127 14.8618C26.5422 14.7025 26.7882 14.5553 27.1097 14.5553C27.5046 14.5553 27.6995 14.8725 27.6995 15.3267C27.6995 15.3994 27.6958 15.4744 27.6854 15.5482ZM28.1726 17.5445C28.1679 17.5369 28.1647 17.5266 28.1628 17.5168C28.1605 17.5071 28.1588 17.4943 28.1574 17.4829C28.1561 17.4711 28.1554 17.4591 28.1554 17.447C28.155 17.434 28.1549 17.4239 28.1542 17.4103C28.1536 17.3981 28.1519 17.3874 28.1502 17.3752C28.1487 17.3651 28.1459 17.3546 28.1429 17.3449C28.1392 17.3365 28.1347 17.3283 28.1288 17.3216C28.1235 17.3159 28.1161 17.3113 28.1075 17.3096H28.1072C28.1259 17.3016 28.1399 17.2846 28.1487 17.263C28.157 17.2409 28.1616 17.2134 28.1616 17.184C28.1616 17.1439 28.1528 17.1117 28.1362 17.0882C28.1194 17.0649 28.0953 17.0533 28.0651 17.0533H27.9173V17.547H27.961V17.3378H28.0617C28.0718 17.3378 28.0789 17.3405 28.0854 17.3449C28.0916 17.3508 28.0962 17.3558 28.0995 17.3636C28.1035 17.3714 28.1068 17.3806 28.1078 17.3911C28.11 17.4025 28.1116 17.4128 28.1126 17.4252C28.114 17.4363 28.1154 17.4485 28.1154 17.4615L28.1161 17.4962C28.1165 17.5071 28.1166 17.5168 28.1186 17.5248C28.1193 17.5348 28.1214 17.5409 28.1256 17.547H28.1735L28.1726 17.5445ZM27.961 17.1117H28.0635C28.0822 17.1117 28.0962 17.1201 28.1044 17.1342C28.1131 17.1502 28.1179 17.1697 28.1179 17.1945C28.1179 17.2113 28.1161 17.2266 28.1121 17.2365C28.1078 17.2472 28.1028 17.2567 28.0969 17.263C28.0903 17.2689 28.0827 17.2748 28.0742 17.276C28.0651 17.279 28.0563 17.2796 28.047 17.2796H27.961V17.1117Z" fill="#ED1D24"/>
<path d="M28.0395 17.7217C27.8914 17.7217 27.771 17.5331 27.771 17.3001C27.771 17.0681 27.8914 16.8799 28.0395 16.8799C28.1874 16.8799 28.3076 17.0681 28.3076 17.3001C28.3076 17.5331 28.1874 17.7217 28.0395 17.7217ZM28.0395 16.9416C27.9132 16.9416 27.8113 17.103 27.8113 17.3001C27.8113 17.4988 27.9132 17.6585 28.0395 17.6585C28.1654 17.6585 28.2674 17.4988 28.2674 17.3001C28.2674 17.103 28.1654 16.9416 28.0395 16.9416Z" fill="#ED1D24"/>
</svg>
